<svg width="24" height="23" viewBox="0 0 24 23" fill="none" xmlns="http://www.w3.org/2000/svg">
<path fill-rule="evenodd" clip-rule="evenodd" d="M9.9844 3.46213C8.12222 1.46068 5.12694 1.46068 3.26475 3.46213C1.37329 5.49503 1.37329 8.81267 3.26475 10.8456L12 20.2341L20.7353 10.8456C22.6267 8.81267 22.6267 5.49503 20.7353 3.46213C18.8731 1.46068 15.8778 1.46068 14.0156 3.46213L12.6717 4.90648C12.4973 5.09394 12.6717 4.90648 12 5.7013C11.3283 4.90648 11.5027 5.09394 11.3283 4.90648L9.9844 3.46213ZM1.92127 2.17945C4.51223 -0.605272 8.73693 -0.605272 11.3279 2.17945L12 2.90183L12.6721 2.17945C15.2631 -0.605272 19.4878 -0.605272 22.0787 2.17945C24.6404 4.93271 24.6404 9.37499 22.0787 12.1283L12.6717 22.2387C12.4973 22.4262 12.6717 22.2387 12 23C11.3283 22.2387 11.5027 22.4262 11.3283 22.2387L1.92127 12.1283C-0.640422 9.37499 -0.640423 4.93271 1.92127 2.17945Z" fill="#273428"/>
</svg>
