<svg width="26" height="26" viewBox="0 0 26 26" fill="none" xmlns="http://www.w3.org/2000/svg">
<path fill-rule="evenodd" clip-rule="evenodd" d="M6.82495 6.49995C6.82495 3.08959 9.58959 0.324951 13 0.324951C16.4103 0.324951 19.1749 3.08959 19.1749 6.49995C19.1749 9.91031 16.4103 12.675 13 12.675C9.58959 12.675 6.82495 9.91031 6.82495 6.49995ZM13 1.84162C10.4272 1.84162 8.34162 3.92723 8.34162 6.49995C8.34162 9.07268 10.4272 11.1583 13 11.1583C15.5727 11.1583 17.6583 9.07268 17.6583 6.49995C17.6583 3.92723 15.5727 1.84162 13 1.84162Z" fill="#5D7B67"/>
<path fill-rule="evenodd" clip-rule="evenodd" d="M23.8323 25.675L2.16691 25.675L2.15311 25.6746C2.14108 25.6742 2.12192 25.6733 2.09667 25.6715C2.04607 25.6679 1.97166 25.6605 1.88151 25.6455C1.69967 25.6152 1.46218 25.5552 1.22863 25.4384C0.99635 25.3223 0.773958 25.1532 0.608909 24.9056C0.445216 24.6601 0.324951 24.3181 0.324951 23.8333C0.324951 22.8334 0.834294 20.7502 2.66726 18.9173C4.4907 17.0938 7.65182 15.4916 13 15.4916C18.3481 15.4916 21.5092 17.0938 23.3326 18.9173C25.1656 20.7502 25.6749 22.8334 25.6749 23.8333C25.6749 24.3181 25.5547 24.6601 25.391 24.9056C25.2259 25.1532 25.0035 25.3223 24.7713 25.4384C24.5377 25.5552 24.3002 25.6152 24.1184 25.6455C24.0282 25.6605 23.9538 25.6679 23.9032 25.6715C23.878 25.6733 23.8588 25.6742 23.8468 25.6746L23.8323 25.675ZM12.9999 17.0083C7.97147 17.0083 5.22519 18.5042 3.73968 19.9897C2.20719 21.5222 1.84518 23.2069 1.84162 23.8239L1.83974 24.1507H24.1601L24.1582 23.8239C24.1547 23.2069 23.7927 21.5222 22.2602 19.9897C20.7747 18.5042 18.0284 17.0083 12.9999 17.0083Z" fill="#5D7B67"/>
</svg>
