<svg width="26" height="26" viewBox="0 0 26 26" fill="none" xmlns="http://www.w3.org/2000/svg">
<path d="M19.081 16.8088C20.366 15.0594 21.125 12.8996 21.125 10.5625C21.125 4.72899 16.396 0 10.5625 0C4.72899 0 0 4.72899 0 10.5625C0 16.396 4.72899 21.125 10.5625 21.125C12.9002 21.125 15.0605 20.3656 16.8102 19.08L16.8088 19.081C16.8567 19.146 16.9101 19.2082 16.969 19.267L23.226 25.5241C23.8606 26.1587 24.8895 26.1587 25.5241 25.5241C26.1587 24.8895 26.1587 23.8606 25.5241 23.226L19.267 16.969C19.2082 16.9101 19.146 16.8567 19.081 16.8088ZM19.5 10.5625C19.5 15.4985 15.4985 19.5 10.5625 19.5C5.62645 19.5 1.625 15.4985 1.625 10.5625C1.625 5.62645 5.62645 1.625 10.5625 1.625C15.4985 1.625 19.5 5.62645 19.5 10.5625Z" fill="#5D7B67"/>
</svg>
