<?xml version="1.0" ?><!DOCTYPE svg  PUBLIC '-//W3C//DTD SVG 1.1//EN'  'http://www.w3.org/Graphics/SVG/1.1/DTD/svg11.dtd'><svg width="64px" height="64px" viewBox="0 0 64 64" enable-background="new 0 0 64 64" version="1.1" xml:space="preserve" xmlns="http://www.w3.org/2000/svg" xmlns:xlink="http://www.w3.org/1999/xlink"><g id="grid"/><g id="Layer_2"/><g id="Layer_3"/><g id="Layer_4"/><g id="Layer_5"/><g id="Layer_6"/><g id="Layer_7"/><g id="Layer_8"/><g id="Layer_9"><g><g><path d="M49.268,62.591H14.732V1.409h34.535V62.591z M16.732,60.591h30.535V3.409H16.732V60.591z"/></g><g><g><path d="M41.495,37.85h-18.99v-11.7h18.99V37.85z M24.505,35.85h14.99v-7.7h-14.99V35.85z"/></g><g><path d="M41.495,17.7h-18.99V6h18.99V17.7z M24.505,15.7h14.99V8h-14.99V15.7z"/></g><g><path d="M41.495,58h-18.99V46.3h18.99V58z M24.505,56h14.99v-7.7h-14.99V56z"/></g></g><g><g><rect height="4.188" width="2" x="18.5" y="2.906"/></g><g><rect height="4.188" width="2" x="43.5" y="2.906"/></g><g><rect height="4.188" width="2" x="18.5" y="8.906"/></g><g><rect height="4.188" width="2" x="43.5" y="8.906"/></g><g><rect height="4.188" width="2" x="18.5" y="14.906"/></g><g><rect height="4.188" width="2" x="43.5" y="14.906"/></g><g><rect height="4.188" width="2" x="18.5" y="20.906"/></g><g><rect height="4.188" width="2" x="43.5" y="20.906"/></g><g><rect height="4.188" width="2" x="18.5" y="26.906"/></g><g><rect height="4.188" width="2" x="43.5" y="26.906"/></g><g><rect height="4.188" width="2" x="18.5" y="32.906"/></g><g><rect height="4.188" width="2" x="43.5" y="32.906"/></g><g><rect height="4.188" width="2" x="18.5" y="38.906"/></g><g><rect height="4.188" width="2" x="43.5" y="38.906"/></g><g><rect height="4.188" width="2" x="18.5" y="44.906"/></g><g><rect height="4.188" width="2" x="43.5" y="44.906"/></g><g><rect height="4.188" width="2" x="18.5" y="50.906"/></g><g><rect height="4.188" width="2" x="43.5" y="50.906"/></g><g><rect height="4.188" width="2" x="18.5" y="56.906"/></g><g><rect height="4.188" width="2" x="43.5" y="56.906"/></g></g></g></g><g id="Layer_10"/><g id="Layer_37"/><g id="Layer_11"/><g id="Layer_12"/><g id="Layer_13"/><g id="Layer_14"/><g id="Layer_16"/><g id="Layer_17"/><g id="Layer_18"/><g id="Layer_19"/><g id="Layer_20"/><g id="Layer_21"/><g id="Layer_22"/><g id="Layer_23"/><g id="Layer_24"/><g id="Layer_25"/></svg>